<?xml version="1.0" encoding="UTF-8" standalone="no"?>
<!-- Created with Inkscape (http://www.inkscape.org/) -->

<svg width="13.502583mm" height="6.2172141mm" viewBox="0 0 13.502583 6.2172141" version="1.1" id="svg5" inkscape:export-filename="Face.svg" inkscape:export-xdpi="12.095238" inkscape:export-ydpi="12.095238" xmlns:inkscape="http://www.inkscape.org/namespaces/inkscape" xmlns:sodipodi="http://sodipodi.sourceforge.net/DTD/sodipodi-0.dtd" xmlns="http://www.w3.org/2000/svg" xmlns:svg="http://www.w3.org/2000/svg">
  <sodipodi:namedview id="namedview7" pagecolor="#ffffff" bordercolor="#666666" borderopacity="1.0" inkscape:showpageshadow="2" inkscape:pageopacity="0.0" inkscape:pagecheckerboard="0" inkscape:deskcolor="#d1d1d1" inkscape:document-units="mm" showgrid="false" />
  <defs id="defs2" />
  <g inkscape:label="Ebene 1" inkscape:groupmode="layer" id="layer1">
    <path style="fill:none;stroke:#666666;stroke-width:0.373044px;stroke-linecap:butt;stroke-linejoin:miter;stroke-opacity:1" d="m 1.4265407,0.35073838 c 0,0 -2.976313,3.54549502 0.29351,5.71096402" id="path359" />
    <path style="fill:none;stroke:#666666;stroke-width:0.331652px;stroke-linecap:butt;stroke-linejoin:miter;stroke-opacity:1" d="m 11.767499,0.31135438 c 0,0 3.412037,3.11332002 0.173615,5.41507802" id="path361" />
    <path style="fill:none;fill-opacity:1;stroke:#666666;stroke-width:0.182939" id="path415" sodipodi:type="arc" sodipodi:cx="3.2780831" sodipodi:cy="2.9622126" sodipodi:rx="0.94910854" sodipodi:ry="0.93530548" sodipodi:start="4.693652" sodipodi:end="4.6935215" sodipodi:open="true" sodipodi:arc-type="arc" d="M 3.2603007,2.0270713 A 0.94910854,0.93530548 0 0 1 4.2270244,2.9446583 0.94910854,0.93530548 0 0 1 3.2959274,3.8973527 0.94910854,0.93530548 0 0 1 2.3291429,2.9798279 0.94910854,0.93530548 0 0 1 3.2601769,2.0270736" />
    <path style="fill:none;fill-opacity:1;stroke:#666666;stroke-width:0.182939" id="path415-3" sodipodi:type="arc" sodipodi:cx="9.6165304" sodipodi:cy="2.9856882" sodipodi:rx="0.94910854" sodipodi:ry="0.93530548" sodipodi:start="4.693652" sodipodi:end="4.6935215" sodipodi:open="true" sodipodi:arc-type="arc" d="M 9.598748,2.0505469 A 0.94910854,0.93530548 0 0 1 10.565472,2.9681339 0.94910854,0.93530548 0 0 1 9.6343747,3.9208284 0.94910854,0.93530548 0 0 1 8.6675902,3.0033035 0.94910854,0.93530548 0 0 1 9.5986242,2.0505492" />
    <path style="fill:none;stroke:#666666;stroke-width:0.229752px;stroke-linecap:butt;stroke-linejoin:miter;stroke-opacity:1" d="m 5.3841047,4.5329804 c 0,0 3.410006,1.641621 5.6409913,0.124958" id="path1846" />
    <path style="fill:none;stroke:#666666;stroke-width:0.264583px;stroke-linecap:butt;stroke-linejoin:miter;stroke-opacity:1" d="m 2.4447347,0.01711038 c 0,0 0.427284,3.27586202 1.565045,0.261303" id="path1848" />
    <path style="fill:none;stroke:#666666;stroke-width:0.264583px;stroke-linecap:butt;stroke-linejoin:miter;stroke-opacity:1" d="m 8.6945557,0.23667538 c 0,0 0.910862,2.33319602 1.4789493,0.231412" id="path1850" />
  </g>
</svg>
